<svg id="c" xmlns="http://www.w3.org/2000/svg" viewBox="0 0 1067.51 470.9">
  <defs>
    <style>
      .bc{fill:#142e47;}.bd{fill:#16663a;}.be{fill:#fff;}.bf{fill:#a32b2b;}.bg{fill:#ce9e3c;}.bh{fill:#f9f7f4;}.bi{fill:#114c2a;}.bj{fill:#19355e;}.bk{fill:#bf3030;}.bl{fill:#d3cfc7;}.bm{fill:#eab642;}
    </style>
  </defs>
  <g id="d">
    <g id="e">
      <path id="f" class="be" d="M523.4 66.4c1.22 0 2.36.56 3.42 1.68a5.45 5.45 0 0 1 1.58 3.87c0 1.23-.47 2.67-1.42 4.29-.94 1.63-1.86 2.44-2.75 2.44h-.17l-31.02 1.99-1 5.3.66 14.73v23.17c0 1.43.11 5.24.33 11.42h4.76c4.71 0 9.52-.25 14.45-.75s7.5-.75 7.72-.75c2.3 0 3.45 1.33 3.45 3.98 0 3.76-2.49 6.42-7.47 7.97-4.98 1.55-12.95 2.32-23.9 2.32-5.42 0-8.96-.33-10.62-1-2.22-1-3.32-3.16-3.32-6.48v-.83l.5-10.81v-13.3l-.5-23.61V76.24l.5-10.47-1.16-25.44c-.11-2.11 2.05-3.16 6.47-3.16h12.62c2.88.44 5.31.66 7.3.66 1.22 0 2.63-.11 4.23-.33 1.6-.22 2.57-.33 2.91-.33 6.75 0 10.13 2.22 10.13 6.65 0 3.98-2.6 5.97-7.8 5.97h-.83a89.25 89.25 0 0 1-14.77 1.16h-1.16c-.22 0-.66.08-1.33.25s-1.22.25-1.66.25h-.33l-.5 6.79v8.15h30.69ZM519.44 0c1.88 0 3.49.66 4.81 1.99a6.55 6.55 0 0 1 1.99 4.81c0 2.99-2.6 6.37-7.8 10.13-10.96 7.97-18.37 11.95-22.24 11.95-2.99 0-4.48-1.33-4.48-3.98 0-1.99 1.55-4.26 4.65-6.81l11.62-9.3a534.2 534.2 0 0 1 5.64-5.89c1.88-1.94 3.82-2.91 5.81-2.91Z"/>
      <path id="g" class="be" d="M570.73 62.42c4.09 0 6.14 1.77 6.14 5.31 0 1.88-.83 3.65-2.49 5.31-.89.89-3.04 2.49-6.47 4.81-12.06 8.3-18.09 18.87-18.09 31.71 0 4.87 1.33 9.74 3.98 14.61l6.81 6.31c7.19 3.54 11.07 5.54 11.62 5.98 2.66 1.55 3.98 3.27 3.98 5.15s-.61 3.51-1.83 4.9c-1.22 1.38-2.6 2.08-4.15 2.08-6.64 0-14.5-4.15-23.57-12.45-6.75-6.2-10.13-15.6-10.13-28.22 0-8.74 3.54-18.31 10.62-28.72 7.64-11.18 15.49-16.77 23.57-16.77Z"/>
      <path id="h" class="be" d="M589.66 50.46v-7.47c0-6.31 2.3-9.46 6.9-9.46 5.14 0 7.71 3.6 7.71 10.79 0 .44-.08 2.41-.25 5.89-.17 3.49-.25 6.72-.25 9.71V80.5l.17 19.26.33 42.5c0 4.1-2.49 6.14-7.47 6.14s-7.14-2.54-7.14-7.64v-.83l1.28-28.39.21-4.48c0-3.87-.25-9.05-.75-15.52-.5-6.47-.75-11.04-.75-13.69V50.46Z"/>
      <path id="i" class="be" d="M654.9 111.88a340.24 340.24 0 0 0 4.48 20.09c1.33 5.31 1.99 8.3 1.99 8.96 0 3.98-2.38 6.37-7.14 7.14l-10.62-.66-15.44 1.49c-3.88 0-7.14-1.83-9.79-5.49-2.55-2.11-3.82-4.6-3.82-7.49 0-3.43 2.1-8.92 6.31-16.46l4.15-7.48 12.78-16.97-.33-2.99-3.98-17.46a27.64 27.64 0 0 1-.83-4.82c0-4.66 2.66-6.99 7.97-6.99 2.32 0 4.26 1.22 5.81 3.65l1 4.32 1.99 11.45c1.44 8.19 2.82 15.77 4.15 22.74l1.33 6.97Zm-8.64 23.08a255.51 255.51 0 0 1-5.98-23.74c-8.3 9.85-12.62 17.1-12.95 21.75l1.99 3.32c3.1.55 5.64.83 7.64.83 3.76 0 6.86-.72 9.3-2.16Z"/>
      <path id="j" class="be" d="M693.74 43.82c0 2.55-.94 4.81-2.82 6.81-1.88 1.99-3.88 2.99-5.98 2.99-1.88 0-3.85-1.13-5.89-3.4-2.05-2.27-3.07-4.45-3.07-6.56 0-1.99.88-3.96 2.66-5.89 1.77-1.93 3.65-2.9 5.64-2.9 2.21 0 4.34 1 6.39 2.99 2.05 1.99 3.07 3.98 3.07 5.98Zm-1 59.6-.66 5.81v34.03c0 1.33-.85 2.66-2.55 3.98a8.47 8.47 0 0 1-5.27 1.99 7.51 7.51 0 0 1-4.34-1.33c-1.3-.88-1.95-1.83-1.95-2.82l.17-11.45c0-2.66-.03-5.42-.08-8.3a409 409 0 0 1-.08-4.65c0-.66.05-2.93.17-6.81l1-11.79-1-19.59-.66-9.79a22.02 22.02 0 0 1-.33-2.49c0-4.54 2.66-6.81 7.97-6.81 3.76 0 6.25 1.66 7.47 4.98.77 1.99 1.16 5.31 1.16 9.96 0 1.77-.33 7.97-1 18.59v6.47Z"/>
      <path id="k" class="be" d="m749.02 75.2-4.15 2.66c-3.43 2.1-8.47 5.75-15.11 10.96a169.74 169.74 0 0 0-4.4 3.9c-1.39 1.27-2.08 2.35-2.08 3.24v.17l.83 19.09-.83 7.8.83 17.43-.66 5.48c-.22 1.77-1.72 2.66-4.48 2.66-4.09 0-6.7-1.11-7.8-3.32l-2.16-4.14a1217 1217 0 0 0 .5-34.96V74.36c0-4.42.28-7.34.85-8.78.79-1.88 2.44-2.82 4.93-2.82s4.55.55 6.2 1.64c1.64 1.09 2.46 2.36 2.46 3.78l.17 10.02 8.03-8.13 5.9-5.15c1.64-1.44 3.28-2.16 4.92-2.16 1.86 0 3.49.78 4.92 2.32a8.28 8.28 0 0 1 2.13 5.81c0 1.33-.33 2.77-1 4.32Z"/>
      <path id="l" class="be" d="M803.46 94.12c-.99 4.54-3.75 6.81-8.26 6.81-.66 0-3.58-.3-8.76-.91-5.18-.61-9.97-.91-14.38-.91-2.65 0-4.68.06-6.12.17l-.5 1.99a49.81 49.81 0 0 0-.17 4.65c0 7.86 1.54 14.11 4.61 18.76s8.08 8.19 15 10.62c2.86 1.33 4.29 3.27 4.29 5.81 0 4.87-2.32 7.3-6.97 7.3l-4.98-.66c-17.04-8.63-25.56-21.36-25.56-38.18 0-13.72 3.26-25.07 9.79-34.03 5.98-8.3 13-12.45 21.08-12.45 1.1 0 3.59.39 7.47 1.16 8.3 5.64 12.78 15.6 13.45 29.88Zm-14.77-6.97c-1.33-6.97-3.71-10.9-7.14-11.79-5.76.78-9.96 3.88-12.62 9.3l-.83 4.32 14.28-.66 6.31-1.16Z"/>
      <path id="m" class="be" d="M866.07 143.09c0 .11.05.22.14.33v.5c0 3.1-2.1 4.65-6.31 4.65a8.77 8.77 0 0 1-3.65-.83l-2.16-5.31c-5.42 3.65-10.85 5.48-16.27 5.48-7.19 0-12.84-2.24-16.93-6.72-4.1-4.48-6.14-10.82-6.14-19.01 0-24.46 5.64-43.66 16.93-57.6a8.77 8.77 0 0 1 4.65-1.33c3.65 0 5.48 1.78 5.48 5.33 0 1.44-.72 3.72-2.16 6.82a819.37 819.37 0 0 1-4.81 10.48c-4.65 10.76-6.97 22.46-6.97 35.11 0 5.1.81 8.82 2.44 11.15s4.52 3.49 8.68 3.49c6.07 0 9.72-1.89 10.96-5.66v-10.82l.17-14.48-.17-9.32V73.22c0-4.88 2.24-7.32 6.71-7.32 2.66 0 4.42 1.27 5.27 3.82.42 1.33.64 3.76.64 7.3v35.52c0 3.65.33 9.63 1 17.93l2.52 12.62Z"/>
      <path id="n" class="be" d="m909.2 131.83-2.82 7.46c-4.98 5.97-10.9 8.95-17.76 8.95h-3.49c-5.87 0-8.8-2.13-8.8-6.4 0-3.26 1.97-4.94 5.92-5.05h3.95c6.25-.22 9.38-3.26 9.38-9.11v-.83a4.42 4.42 0 0 1-.16-1 24 24 0 0 0-3.46-9.94l-5.92-8.61c-5.38-7.84-8.06-15.73-8.06-23.68 0-4.08 1.77-8.67 5.31-13.75l5.64-4.97c1.66-1.43 3.54-2.15 5.64-2.15s3.87.66 5.31 1.99a5.98 5.98 0 0 1 2.16 4.47c0 1.22-.66 2.6-1.99 4.14-5.98 4.64-8.96 8.95-8.96 12.92 0 4.86 3.04 10.83 9.13 17.89 5.86 11.16 8.85 20.38 8.96 27.67Z"/>
      <path id="o" class="be" d="M969.46 94.12c-.99 4.54-3.75 6.81-8.26 6.81-.66 0-3.58-.3-8.76-.91-5.18-.61-9.97-.91-14.38-.91-2.65 0-4.68.06-6.12.17l-.5 1.99a49.81 49.81 0 0 0-.17 4.65c0 7.86 1.54 14.11 4.61 18.76s8.08 8.19 15 10.62c2.86 1.33 4.29 3.27 4.29 5.81 0 4.87-2.32 7.3-6.97 7.3l-4.98-.66c-17.04-8.63-25.56-21.36-25.56-38.18 0-13.72 3.26-25.07 9.79-34.03 5.98-8.3 13-12.45 21.08-12.45 1.1 0 3.59.39 7.47 1.16 8.3 5.64 12.78 15.6 13.45 29.88Zm-14.77-6.97c-1.33-6.97-3.71-10.9-7.14-11.79-5.76.78-9.96 3.88-12.62 9.3l-.83 4.32 14.28-.66 6.31-1.16Z"/>
      <path id="p" class="be" d="m1011.79 131.83-2.82 7.46c-4.98 5.97-10.9 8.95-17.76 8.95h-3.49c-5.87 0-8.8-2.13-8.8-6.4 0-3.26 1.97-4.94 5.92-5.05h3.95c6.25-.22 9.38-3.26 9.38-9.11v-.83a4.42 4.42 0 0 1-.16-1 24 24 0 0 0-3.46-9.94l-5.92-8.61c-5.38-7.84-8.06-15.73-8.06-23.68 0-4.08 1.77-8.67 5.31-13.75l5.64-4.97c1.66-1.43 3.54-2.15 5.64-2.15s3.87.66 5.31 1.99a5.98 5.98 0 0 1 2.16 4.47c0 1.22-.66 2.6-1.99 4.14-5.98 4.64-8.96 8.95-8.96 12.92 0 4.86 3.04 10.83 9.13 17.89 5.86 11.16 8.85 20.38 8.96 27.67Z"/>
      <path id="q" class="be" d="M497.34 233.57c0-4.07 1.69-8.34 5.07-12.82 3.62-4.76 7.41-7.14 11.35-7.14 4.64 0 8.28 1.63 10.92 4.88 2.48 2.97 3.72 6.84 3.72 11.6 0 8.26-4.9 16.07-14.71 23.44 3.13 6.88 7.96 15.52 14.47 25.94a40.46 40.46 0 0 0 1.83-6.96 97.9 97.9 0 0 1 1.4-7.75c1.06-3.34 2.69-5 4.88-5 1.71 0 3.05.92 4.03 2.75.81 1.51 1.22 3.2 1.22 5.07 0 8.26-2.12 15.91-6.35 22.95 6.8 10.66 10.19 16.99 10.19 18.98 0 1.46-.58 2.72-1.74 3.75a5.74 5.74 0 0 1-3.94 1.56c-1.83 0-3.4-1.04-4.7-3.11l-7.02-12.15c-8.18 7.98-17.33 11.96-27.47 11.96-7.61 0-14.1-2.34-19.47-7.02a23.43 23.43 0 0 1-8.48-18.55c0-7.89 2.99-15.08 8.97-21.54 3.46-3.74 9.77-8.67 18.92-14.77a45.13 45.13 0 0 1-3.11-16.05Zm7.75 26c-7 4.68-11.76 8.28-14.28 10.8-4.92 4.92-7.39 10.11-7.39 15.56 0 4.44 1.77 8.06 5.31 10.86a18.64 18.64 0 0 0 11.78 3.85c8.22 0 15.32-3.48 21.3-10.44-3.09-4.6-8.67-14.81-16.72-30.64Zm4.64-16.66c5.21-4.31 7.81-8.58 7.81-12.82 0-1.87-.32-3.27-.95-4.18-.63-.92-1.58-1.37-2.84-1.37-.73 0-1.84 1.29-3.33 3.88-1.49 2.58-2.23 4.3-2.23 5.16 0 2.73.51 5.84 1.53 9.34Z"/>
      <path id="r" class="be" d="M632.74 227.4c1.22 0 2.36.56 3.42 1.68a5.45 5.45 0 0 1 1.58 3.87c0 1.23-.47 2.67-1.42 4.29-.94 1.63-1.86 2.44-2.75 2.44h-.17l-31.02 1.99-1 5.3.66 14.73v23.17c0 1.43.11 5.24.33 11.42h4.76c4.71 0 9.52-.25 14.45-.75s7.5-.75 7.72-.75c2.3 0 3.45 1.33 3.45 3.98 0 3.76-2.49 6.42-7.47 7.97-4.98 1.55-12.95 2.32-23.9 2.32-5.42 0-8.96-.33-10.62-1-2.22-1-3.32-3.16-3.32-6.48v-.83l.5-10.81v-13.3l-.5-23.61v-15.79l.5-10.47-1.16-25.44c-.11-2.11 2.05-3.16 6.47-3.16h12.62c2.88.44 5.31.66 7.3.66 1.22 0 2.63-.11 4.23-.33 1.6-.22 2.57-.33 2.91-.33 6.75 0 10.13 2.22 10.13 6.65 0 3.98-2.6 5.97-7.8 5.97h-.83a89.25 89.25 0 0 1-14.77 1.16h-1.16c-.22 0-.66.08-1.33.25s-1.22.25-1.66.25h-.33l-.5 6.79v8.15h30.69Zm-3.96-66.4c1.88 0 3.49.66 4.81 1.99a6.55 6.55 0 0 1 1.99 4.81c0 2.99-2.6 6.37-7.8 10.13-10.96 7.97-18.37 11.95-22.24 11.95-2.99 0-4.48-1.33-4.48-3.98 0-1.99 1.55-4.26 4.65-6.81l11.62-9.3a534.2 534.2 0 0 1 5.64-5.89c1.88-1.94 3.82-2.91 5.81-2.91Z"/>
      <path id="s" class="be" d="M680.07 223.42c4.09 0 6.14 1.77 6.14 5.31 0 1.88-.83 3.65-2.49 5.31-.89.89-3.04 2.49-6.47 4.81-12.06 8.3-18.09 18.87-18.09 31.71 0 4.87 1.33 9.74 3.98 14.61l6.81 6.31c7.19 3.54 11.07 5.54 11.62 5.98 2.66 1.55 3.98 3.27 3.98 5.15s-.61 3.51-1.83 4.9c-1.22 1.38-2.6 2.08-4.15 2.08-6.64 0-14.5-4.15-23.57-12.45-6.75-6.2-10.13-15.6-10.13-28.22 0-8.74 3.54-18.31 10.62-28.72 7.64-11.18 15.49-16.77 23.57-16.77Z"/>
      <path id="t" class="be" d="M699 211.46v-7.47c0-6.31 2.3-9.46 6.9-9.46 5.14 0 7.71 3.6 7.71 10.79 0 .44-.08 2.41-.25 5.89-.17 3.49-.25 6.72-.25 9.71v20.58l.17 19.26.33 42.5c0 4.1-2.49 6.14-7.47 6.14s-7.14-2.54-7.14-7.64v-.83l1.28-28.39.21-4.48c0-3.87-.25-9.05-.75-15.52-.5-6.47-.75-11.04-.75-13.69v-27.39Z"/>
      <path id="u" class="be" d="M764.24 272.88a340.24 340.24 0 0 0 4.48 20.09c1.33 5.31 1.99 8.3 1.99 8.96 0 3.98-2.38 6.37-7.14 7.14l-10.62-.66-15.44 1.49c-3.88 0-7.14-1.83-9.79-5.49-2.55-2.11-3.82-4.6-3.82-7.49 0-3.43 2.1-8.92 6.31-16.46l4.15-7.48 12.78-16.97-.33-2.99-3.98-17.46a27.64 27.64 0 0 1-.83-4.82c0-4.66 2.66-6.99 7.97-6.99 2.32 0 4.26 1.22 5.81 3.65l1 4.32 1.99 11.45c1.44 8.19 2.82 15.77 4.15 22.74l1.33 6.97Zm-8.63 23.08a255.51 255.51 0 0 1-5.98-23.74c-8.3 9.85-12.62 17.1-12.95 21.75l1.99 3.32c3.1.55 5.64.83 7.64.83 3.76 0 6.86-.72 9.3-2.16Z"/>
      <path id="v" class="be" d="M803.08 204.82c0 2.55-.94 4.81-2.82 6.81-1.88 1.99-3.88 2.99-5.98 2.99-1.88 0-3.85-1.13-5.89-3.4-2.05-2.27-3.07-4.45-3.07-6.56 0-1.99.88-3.96 2.66-5.89 1.77-1.93 3.65-2.9 5.64-2.9 2.21 0 4.34 1 6.39 2.99 2.05 1.99 3.07 3.98 3.07 5.98Zm-1 59.6-.66 5.81v34.03c0 1.33-.85 2.66-2.55 3.98a8.47 8.47 0 0 1-5.27 1.99 7.51 7.51 0 0 1-4.34-1.33c-1.3-.88-1.95-1.83-1.95-2.82l.17-11.45c0-2.66-.03-5.42-.08-8.3a409 409 0 0 1-.08-4.65c0-.66.05-2.93.17-6.81l1-11.79-1-19.59-.66-9.79a22.02 22.02 0 0 1-.33-2.49c0-4.54 2.66-6.81 7.97-6.81 3.76 0 6.25 1.66 7.47 4.98.77 1.99 1.16 5.31 1.16 9.96 0 1.77-.33 7.97-1 18.59v6.47Z"/>
      <path id="w" class="be" d="m858.36 236.2-4.15 2.66c-3.43 2.1-8.47 5.75-15.11 10.96a169.74 169.74 0 0 0-4.4 3.9c-1.39 1.27-2.08 2.35-2.08 3.24v.17l.83 19.09-.83 7.8.83 17.43-.66 5.48c-.22 1.77-1.72 2.66-4.48 2.66-4.09 0-6.7-1.11-7.8-3.32l-2.16-4.14a1217 1217 0 0 0 .5-34.96v-31.81c0-4.42.28-7.34.85-8.78.79-1.88 2.44-2.82 4.93-2.82s4.55.55 6.2 1.64c1.64 1.09 2.46 2.36 2.46 3.78l.17 10.02 8.03-8.13 5.9-5.15c1.64-1.44 3.28-2.16 4.92-2.16 1.86 0 3.49.78 4.92 2.32a8.28 8.28 0 0 1 2.13 5.81c0 1.33-.33 2.77-1 4.32Z"/>
      <path id="x" class="be" d="M912.8 255.12c-.99 4.54-3.75 6.81-8.26 6.81-.66 0-3.58-.3-8.76-.91-5.18-.61-9.97-.91-14.38-.91-2.65 0-4.68.06-6.12.17l-.5 1.99a49.81 49.81 0 0 0-.17 4.65c0 7.86 1.54 14.11 4.61 18.76s8.08 8.19 15 10.62c2.86 1.33 4.29 3.27 4.29 5.81 0 4.87-2.32 7.3-6.97 7.3l-4.98-.66c-17.04-8.63-25.56-21.36-25.56-38.18 0-13.72 3.26-25.07 9.79-34.03 5.98-8.3 13-12.45 21.08-12.45 1.1 0 3.59.39 7.47 1.16 8.3 5.64 12.78 15.6 13.45 29.88Zm-14.77-6.97c-1.33-6.97-3.71-10.9-7.14-11.79-5.76.78-9.96 3.88-12.62 9.3l-.83 4.32 14.28-.66 6.31-1.16Z"/>
      <path id="y" class="be" d="M975.41 304.09c0 .11.05.22.14.33v.5c0 3.1-2.1 4.65-6.31 4.65a8.77 8.77 0 0 1-3.65-.83l-2.16-5.31c-5.42 3.65-10.85 5.48-16.27 5.48-7.19 0-12.84-2.24-16.93-6.72-4.1-4.48-6.14-10.82-6.14-19.01 0-24.46 5.64-43.66 16.93-57.6a8.77 8.77 0 0 1 4.65-1.33c3.65 0 5.48 1.78 5.48 5.33 0 1.44-.72 3.72-2.16 6.82a819.37 819.37 0 0 1-4.81 10.48c-4.65 10.76-6.97 22.46-6.97 35.11 0 5.1.81 8.82 2.44 11.15s4.52 3.49 8.68 3.49c6.07 0 9.72-1.89 10.96-5.66v-10.82l.17-14.48-.17-9.32v-22.13c0-4.88 2.24-7.32 6.71-7.32 2.66 0 4.42 1.27 5.27 3.82.42 1.33.64 3.76.64 7.3v35.52c0 3.65.33 9.63 1 17.93l2.52 12.62Z"/>
      <path id="z" class="be" d="m1032.16 236.2-4.15 2.66c-3.43 2.1-8.47 5.75-15.11 10.96a169.74 169.74 0 0 0-4.4 3.9c-1.39 1.27-2.08 2.35-2.08 3.24v.17l.83 19.09-.83 7.8.83 17.43-.66 5.48c-.22 1.77-1.72 2.66-4.48 2.66-4.09 0-6.7-1.11-7.8-3.32l-2.16-4.14a1217 1217 0 0 0 .5-34.96v-31.81c0-4.42.28-7.34.85-8.78.79-1.88 2.44-2.82 4.93-2.82s4.55.55 6.2 1.64c1.64 1.09 2.46 2.36 2.46 3.78l.17 10.02 8.03-8.13 5.9-5.15c1.64-1.44 3.28-2.16 4.92-2.16 1.86 0 3.49.78 4.92 2.32a8.28 8.28 0 0 1 2.13 5.81c0 1.33-.33 2.77-1 4.32Z"/>
      <path id="aa" class="be" d="m1067.51 292.83-2.82 7.46c-4.98 5.97-10.9 8.95-17.76 8.95h-3.49c-5.87 0-8.8-2.13-8.8-6.4 0-3.26 1.97-4.94 5.92-5.05h3.95c6.25-.22 9.38-3.26 9.38-9.11v-.83a4.42 4.42 0 0 1-.16-1 24 24 0 0 0-3.46-9.94l-5.92-8.61c-5.38-7.84-8.06-15.73-8.06-23.68 0-4.08 1.77-8.67 5.31-13.75l5.64-4.97c1.66-1.43 3.54-2.15 5.64-2.15s3.87.66 5.31 1.99a5.98 5.98 0 0 1 2.16 4.47c0 1.22-.66 2.6-1.99 4.14-5.98 4.64-8.96 8.95-8.96 12.92 0 4.86 3.04 10.83 9.13 17.89 5.86 11.16 8.85 20.38 8.96 27.67Z"/>
      <path id="ab" class="be" d="m506.35 394.82-.5 9.88v45.38l-.5 11.5c-.17 6.08-1.67 9.12-4.5 9.12-3.75 0-7.71-.73-11.88-2.19-4.17-1.46-7.42-3.27-9.75-5.44-4.83-1.67-7.25-6.79-7.25-15.38 0-6.67 2.08-13.58 6.25-20.75a53.69 53.69 0 0 1 17.5-18.38v-10.12c0-.17-.15-.96-.44-2.38a20.57 20.57 0 0 1-.44-4.12c0-2.08.67-4.46 2-7.12l3.75-1.38c3.83.75 5.75 4.08 5.75 10 0 .08.04.21.12.38v.5c0 .08-.04.25-.12.5Zm-10.25 34.63-.38-9c-9.42 9.83-14.12 18.83-14.12 27 0 3 1.17 5.46 3.5 7.38 2.08 1.83 5.62 3.58 10.62 5.25v-26.75l.38-3.88Z"/>
      <path id="ac" class="be" d="M555.23 429.45c-.75 3.42-2.82 5.12-6.22 5.12-.5 0-2.7-.23-6.6-.69a92.9 92.9 0 0 0-10.83-.69c-1.99 0-3.53.04-4.61.12l-.37 1.5c-.08.83-.12 2-.12 3.5 0 5.92 1.16 10.62 3.47 14.12s6.08 6.17 11.3 8c2.15 1 3.23 2.46 3.23 4.38 0 3.67-1.75 5.5-5.25 5.5l-3.75-.5c-12.83-6.5-19.25-16.08-19.25-28.75 0-10.33 2.46-18.88 7.38-25.62 4.5-6.25 9.79-9.38 15.88-9.38.83 0 2.71.29 5.62.88 6.25 4.25 9.62 11.75 10.12 22.5Zm-11.13-5.25c-1-5.25-2.79-8.21-5.38-8.88-4.33.58-7.5 2.92-9.5 7l-.62 3.25 10.75-.5 4.75-.88Z"/>
      <path id="ad" class="be" d="M586.1 396.57v-5.62c0-4.75 1.73-7.12 5.2-7.12 3.87 0 5.8 2.71 5.8 8.12 0 .33-.06 1.81-.19 4.44s-.19 5.06-.19 7.31v15.5l.12 14.5.25 32c0 3.08-1.88 4.62-5.62 4.62s-5.38-1.92-5.38-5.75v-.62l.96-21.38.16-3.38c0-2.92-.19-6.81-.56-11.69s-.56-8.31-.56-10.31v-20.62Z"/>
      <path id="ae" class="be" d="M635.23 442.82c.92 4.83 2.04 9.88 3.38 15.12 1 4 1.5 6.25 1.5 6.75 0 3-1.79 4.79-5.38 5.38l-8-.5-11.62 1.12c-2.92 0-5.38-1.38-7.38-4.13-1.92-1.59-2.88-3.46-2.88-5.64 0-2.59 1.58-6.72 4.75-12.4l3.12-5.63 9.62-12.78-.25-2.25-3-13.15a20.84 20.84 0 0 1-.62-3.63c0-3.51 2-5.26 6-5.26 1.75 0 3.21.92 4.38 2.75l.75 3.25 1.5 8.62c1.08 6.17 2.12 11.88 3.12 17.12l1 5.25Zm-6.5 17.38a191.77 191.77 0 0 1-4.5-17.88c-6.25 7.42-9.5 12.88-9.75 16.38l1.5 2.5c2.33.42 4.25.62 5.75.62 2.83 0 5.17-.54 7-1.62Z"/>
      <path id="af" class="be" d="M740.92 464.77c-1 4.09-3.26 6.13-6.81 6.13-3.32 0-5.64-1.43-6.97-4.31-1-2.32-1.66-6.52-1.99-12.59l-.61-10.6-1.22-32.14c-6.85-7.62-15.87-16.62-27.06-27.01v25.23l-.66 3.32v13.28c0 8.86.11 17.57.33 26.14l.33 12.53c0 3.32-2.3 4.98-6.88 4.98-2.78 0-4.59-1-5.44-2.99-.75-1.66-1.12-4.92-1.12-9.79v-10.96l.5-36.52-.5-45.98 1.49-2.66c.44-.22 1.1-.33 1.99-.33 2.66 0 6.81 2.6 12.45 7.8 6.97 6.75 13.94 13.45 20.92 20.09l3.65 3.32V368.8c0-3.32 1.49-6.64 4.48-9.96h1.33c6.31 0 9.46 2.87 9.46 8.62v1.16c-.11.44-.17.83-.17 1.16l-1.49 6.3v20.06l-.66 6.63 1.99 52.71a170.8 170.8 0 0 1 2.66 9.28Z"/>
      <path id="ag" class="be" d="M790.89 433.88a340.24 340.24 0 0 0 4.48 20.09c1.33 5.31 1.99 8.3 1.99 8.96 0 3.98-2.38 6.37-7.14 7.14l-10.62-.66-15.44 1.49c-3.88 0-7.14-1.83-9.79-5.49-2.55-2.11-3.82-4.6-3.82-7.49 0-3.43 2.1-8.92 6.31-16.46l4.15-7.48 12.78-16.97-.33-2.99-3.98-17.46a27.64 27.64 0 0 1-.83-4.82c0-4.66 2.66-6.99 7.97-6.99 2.32 0 4.26 1.22 5.81 3.65l1 4.32 1.99 11.45c1.44 8.19 2.82 15.77 4.15 22.74l1.33 6.97Zm-8.63 23.08a255.51 255.51 0 0 1-5.98-23.74c-8.3 9.85-12.62 17.1-12.95 21.75l1.99 3.32c3.1.55 5.64.83 7.64.83 3.76 0 6.86-.72 9.3-2.16Z"/>
      <path id="ah" class="be" d="M844.68 392.38c.99 1.66 1.48 3.1 1.48 4.32 0 2.32-1.39 4.48-4.15 6.47l-3.15 1.16h-11.95v.33l.83 16.14v26.3c-.56 1-.83 2-.83 2.99 0 1.22.3 3.38.91 6.49.61 3.11.91 5.6.91 7.49 0 4.11-1.33 6.16-3.98 6.16-6.86 0-10.29-4.72-10.29-14.15v-31.45c0-5.55-.39-11.98-1.16-19.31l-9.13.66-5.48-.83c-2.55 0-3.82-1.66-3.82-4.98 0-4.98 2.93-7.64 8.8-7.97l9.63-.5v-11.29c0-8.85 2.49-13.28 7.47-13.28 4.65 0 6.97 3.32 6.97 9.96v1.83l-.5 6.97c0 .66-.11 2.16-.33 4.48l.16.66c6.8-.44 10.04-.66 9.71-.66 2.85 0 5.49.66 7.9 1.99Z"/>
      <path id="ai" class="be" d="M901.47 465.09c0 .11.05.22.14.33v.5c0 3.1-2.1 4.65-6.31 4.65a8.77 8.77 0 0 1-3.65-.83l-2.16-5.31c-5.42 3.65-10.85 5.48-16.27 5.48-7.19 0-12.84-2.24-16.93-6.72-4.1-4.48-6.14-10.82-6.14-19.01 0-24.46 5.64-43.66 16.93-57.6a8.77 8.77 0 0 1 4.65-1.33c3.65 0 5.48 1.78 5.48 5.33 0 1.44-.72 3.72-2.16 6.82a819.37 819.37 0 0 1-4.81 10.48c-4.65 10.76-6.97 22.46-6.97 35.11 0 5.1.81 8.82 2.44 11.15s4.52 3.49 8.68 3.49c6.07 0 9.72-1.89 10.96-5.66v-10.82l.17-14.48-.17-9.32v-22.13c0-4.88 2.24-7.32 6.71-7.32 2.66 0 4.42 1.27 5.27 3.82.42 1.33.64 3.76.64 7.3v35.52c0 3.65.33 9.63 1 17.93l2.52 12.62Z"/>
      <path id="aj" class="be" d="m958.21 397.2-4.15 2.66c-3.43 2.1-8.47 5.75-15.11 10.96a169.74 169.74 0 0 0-4.4 3.9c-1.39 1.27-2.08 2.35-2.08 3.24v.17l.83 19.09-.83 7.8.83 17.43-.66 5.48c-.22 1.77-1.72 2.66-4.48 2.66-4.09 0-6.7-1.11-7.8-3.32l-2.16-4.14a1217 1217 0 0 0 .5-34.96v-31.81c0-4.42.28-7.34.85-8.78.79-1.88 2.44-2.82 4.93-2.82s4.55.55 6.2 1.64c1.64 1.09 2.46 2.36 2.46 3.78l.17 10.02 8.03-8.13 5.9-5.15c1.64-1.44 3.28-2.16 4.92-2.16 1.86 0 3.49.78 4.92 2.32a8.28 8.28 0 0 1 2.13 5.81c0 1.33-.33 2.77-1 4.32Z"/>
      <path id="ak" class="be" d="M1012.66 416.12c-.99 4.54-3.75 6.81-8.26 6.81-.66 0-3.58-.3-8.76-.91-5.18-.61-9.97-.91-14.38-.91-2.65 0-4.68.06-6.12.17l-.5 1.99a49.81 49.81 0 0 0-.17 4.65c0 7.86 1.54 14.11 4.61 18.76s8.08 8.19 15 10.62c2.86 1.33 4.29 3.27 4.29 5.81 0 4.87-2.32 7.3-6.97 7.3l-4.98-.66c-17.04-8.63-25.56-21.36-25.56-38.18 0-13.72 3.26-25.07 9.79-34.03 5.98-8.3 13-12.45 21.08-12.45 1.1 0 3.59.39 7.47 1.16 8.3 5.64 12.78 15.6 13.45 29.88Zm-14.77-6.97c-1.33-6.97-3.71-10.9-7.14-11.79-5.76.78-9.96 3.88-12.62 9.3l-.83 4.32 14.28-.66 6.31-1.16Z"/>
    </g>
    <g id="al">
      <path id="am" class="bj" d="M105.93 254.1c0 54.63 44.44 99.07 99.07 99.07s99.07-44.44 99.07-99.07-44.44-99.07-99.07-99.07-99.07 44.44-99.07 99.07Z"/>
      <path id="an" class="bm" d="M116.16 330.23c-17.58-20.48-28.21-47.08-28.21-76.13s10.64-55.65 28.21-76.13L45.19 107v96.25H27.02v-72.43H1.59v246.57h25.43v-72.43h18.17v96.25l70.97-70.97Z"/>
      <path id="ao" class="bh" d="m352.1 413.91-70.97-70.97c-20.48 17.58-47.08 28.21-76.13 28.21s-55.65-10.64-76.13-28.21L57.9 413.91h96.25v18.17H81.72v25.43h245.59v-25.43h-71.45v-18.17h96.25Z"/>
      <path id="ap" class="bd" d="M382.98 130.82v72.43h-18.17V107l-70.97 70.97c17.58 20.48 28.21 47.08 28.21 76.13s-10.64 55.65-28.21 76.13l70.97 70.97v-96.25h18.17v72.43h25.43V130.81h-25.43Z"/>
      <path id="aq" class="bk" d="m57.9 94.29 70.97 70.97c20.48-17.58 47.08-28.21 76.13-28.21s55.65 10.64 76.13 28.21l70.97-70.97h-96.25V76.12h71.45V50.69H81.72v25.43h72.43v18.17H57.9Z"/>
      <path id="ar" class="bc" d="M205 354.76c-55.51 0-100.66-45.16-100.66-100.66S149.5 153.44 205 153.44 305.66 198.6 305.66 254.1 260.5 354.76 205 354.76Zm0-198.15c-53.75 0-97.48 43.73-97.48 97.48s43.73 97.48 97.48 97.48 97.48-43.73 97.48-97.48-43.73-97.48-97.48-97.48Z"/>
      <path id="as" class="bg" d="m46.31 402.32-2.71-1.12v-94.66H28.61v70.84l-1.59 1.59H1.59L0 377.38V130.81l1.59-1.59h25.43l1.59 1.59v70.84H43.6v-94.66l2.71-1.12 70.97 70.97.08 2.16c-17.95 20.91-27.83 47.58-27.83 75.09s9.88 54.18 27.83 75.09l-.08 2.16-70.97 70.97Zm-19.29-98.96h18.17l1.59 1.59v92.41l67.23-67.23c-17.84-21.32-27.64-48.26-27.64-76.04s9.81-54.72 27.64-76.04l-67.23-67.22v92.41l-1.59 1.59H27.02l-1.59-1.59V132.4H3.18v243.39h22.25v-70.84l1.59-1.59Z"/>
      <path id="at" class="bl" d="M327.31 459.1H81.72l-1.59-1.59v-25.43l1.59-1.59h70.84V415.5H57.9l-1.12-2.71 70.97-70.97 2.16-.08c20.91 17.95 47.58 27.83 75.09 27.83s54.18-9.88 75.09-27.83l2.16.08 70.97 70.97-1.12 2.71h-94.66v14.99h69.86l1.59 1.59v25.43l-1.59 1.59Zm-244-3.18h242.41v-22.25h-69.86l-1.59-1.59v-18.17l1.59-1.59h92.41l-67.23-67.23c-21.32 17.84-48.26 27.64-76.04 27.64s-54.72-9.81-76.04-27.64l-67.23 67.23h92.41l1.59 1.59v18.17l-1.59 1.59H83.3v22.25Z"/>
      <path id="au" class="bi" d="m363.69 402.32-70.97-70.97-.08-2.16c17.95-20.91 27.83-47.58 27.83-75.09s-9.88-54.18-27.83-75.09l.08-2.16 70.97-70.97 2.71 1.12v94.66h14.99v-70.84l1.59-1.59h25.43l1.59 1.59v246.57l-1.59 1.59h-25.43l-1.59-1.59v-70.84H366.4v94.66l-2.71 1.12ZM296 330.14l67.23 67.23v-92.41l1.59-1.59h18.17l1.59 1.59v70.84h22.25V132.41h-22.25v70.84l-1.59 1.59h-18.17l-1.59-1.59v-92.41L296 178.07c17.84 21.32 27.64 48.26 27.64 76.04s-9.81 54.72-27.64 76.04Z"/>
      <path id="av" class="bf" d="M280.09 166.47c-20.91-17.95-47.58-27.83-75.09-27.83s-54.18 9.88-75.09 27.83l-2.16-.08-70.97-70.98 1.12-2.71h94.66V77.71H81.72l-1.59-1.59V50.69l1.59-1.59h245.59l1.59 1.59v25.43l-1.59 1.59h-69.86V92.7h94.66l1.12 2.71-70.97 70.97-2.16.08ZM205 135.46c27.78 0 54.72 9.81 76.04 27.64l67.23-67.23h-92.41l-1.59-1.59V76.11l1.59-1.59h69.86V52.27H83.31v22.25h70.84l1.59 1.59v18.17l-1.59 1.59H61.74l67.23 67.23a118.56 118.56 0 0 1 76.04-27.64Z"/>
      <path id="aw" class="be" d="M267.69 252.06a23.7 23.7 0 0 0-27.03-23.46 26.38 26.38 0 0 0-35.65-34.76 26.38 26.38 0 0 0-35.65 34.76 23.7 23.7 0 0 0-24.55 34.02 23.7 23.7 0 0 0 21.22 34.26c13.09 0 22.5-9.38 23.7-22.41 1.75-18.93-22.37-17.21-16.42-.01-23.39-.86-25.56-26.16-11.66-33.43 17.43-9.12 35.53 8.5 35.53 32.11 0 14.07-6.09 40.4-6.09 40.4l13.92-6.66 13.92 6.66s-6.09-26.33-6.09-40.4c0-23.62 18.1-41.24 35.53-32.11 13.9 7.27 11.73 32.57-11.66 33.43 5.95-17.2-18.17-18.92-16.42.01 1.21 13.04 10.61 22.41 23.7 22.41a23.7 23.7 0 0 0 21.22-34.26 23.55 23.55 0 0 0 2.48-10.56Zm-59.31 17.52a5.2 5.2 0 0 1-6.77 0c0-29.04-16.46-30.71-16.46-47.14S205 202.71 205 202.71s19.85 3.31 19.85 19.73-16.46 18.09-16.46 47.14Z"/>
    </g>
  </g>
</svg>
